REM DIRINDEX 1\2,1\3,1\4,1\5
REM DIRNAME cjc046,folder01,folder02,folder03,folder04
TITLE ""
FILE "151.mp3" MP3
  TRACK 01 AUDIO
    TITLE "0:"
    INDEX 01 00:00:00
  TRACK 02 AUDIO
    TITLE "2:cjc046_4204"
    INDEX 01 00:00:13
  TRACK 03 AUDIO
    TITLE "0:"
    INDEX 01 00:01:22
  TRACK 04 AUDIO
    TITLE "3:cjc046_4205"
    INDEX 01 00:01:44
  TRACK 05 AUDIO
    TITLE "0:"
    INDEX 01 00:02:38
  TRACK 06 AUDIO
    TITLE "4:cjc046_4206"
    INDEX 01 00:02:57
  TRACK 07 AUDIO
    TITLE "0:"
    INDEX 01 00:03:66
  TRACK 08 AUDIO
    TITLE "2:cjc046_4207"
    INDEX 01 00:05:03
  TRACK 09 AUDIO
    TITLE "0:"
    INDEX 01 00:06:10
  TRACK 10 AUDIO
    TITLE "3:cjc046_4208"
    INDEX 01 00:06:30
  TRACK 11 AUDIO
    TITLE "0:"
    INDEX 01 00:07:25
  TRACK 12 AUDIO
    TITLE "4:cjc046_4209"
    INDEX 01 00:07:45
  TRACK 13 AUDIO
    TITLE "0:"
    INDEX 01 00:08:52
  TRACK 14 AUDIO
    TITLE "2:cjc046_4210"
    INDEX 01 00:09:59
  TRACK 15 AUDIO
    TITLE "0:"
    INDEX 01 00:10:61
  TRACK 16 AUDIO
    TITLE "3:cjc046_4211"
    INDEX 01 00:11:07
  TRACK 17 AUDIO
    TITLE "0:"
    INDEX 01 00:12:07
  TRACK 18 AUDIO
    TITLE "4:cjc046_4212"
    INDEX 01 00:12:24
  TRACK 19 AUDIO
    TITLE "0:"
    INDEX 01 00:13:26
  TRACK 20 AUDIO
    TITLE "2:cjc046_4213"
    INDEX 01 00:14:37
  TRACK 21 AUDIO
    TITLE "0:"
    INDEX 01 00:15:52
  TRACK 22 AUDIO
    TITLE "3:cjc046_4214"
    INDEX 01 00:15:72
  TRACK 23 AUDIO
    TITLE "0:"
    INDEX 01 00:17:14
  TRACK 24 AUDIO
    TITLE "4:cjc046_4215"
    INDEX 01 00:17:33
  TRACK 25 AUDIO
    TITLE "0:"
    INDEX 01 00:18:50
  TRACK 26 AUDIO
    TITLE "2:cjc046_4216"
    INDEX 01 00:19:60
  TRACK 27 AUDIO
    TITLE "0:"
    INDEX 01 00:20:67
  TRACK 28 AUDIO
    TITLE "3:cjc046_4217"
    INDEX 01 00:21:08
  TRACK 29 AUDIO
    TITLE "0:"
    INDEX 01 00:22:19
  TRACK 30 AUDIO
    TITLE "4:cjc046_4218"
    INDEX 01 00:22:38
  TRACK 31 AUDIO
    TITLE "0:"
    INDEX 01 00:23:44
  TRACK 32 AUDIO
    TITLE "2:cjc046_4219"
    INDEX 01 00:24:55
  TRACK 33 AUDIO
    TITLE "0:"
    INDEX 01 00:25:58
  TRACK 34 AUDIO
    TITLE "3:cjc046_4220"
    INDEX 01 00:25:72
  TRACK 35 AUDIO
    TITLE "0:"
    INDEX 01 00:27:22
  TRACK 36 AUDIO
    TITLE "4:cjc046_4221"
    INDEX 01 00:27:39
  TRACK 37 AUDIO
    TITLE "0:"
    INDEX 01 00:28:45
  TRACK 38 AUDIO
    TITLE "2:cjc046_4222"
    INDEX 01 00:29:50
  TRACK 39 AUDIO
    TITLE "0:"
    INDEX 01 00:31:08
  TRACK 40 AUDIO
    TITLE "3:cjc046_4223"
    INDEX 01 00:31:27
  TRACK 41 AUDIO
    TITLE "0:"
    INDEX 01 00:32:35
  TRACK 42 AUDIO
    TITLE "4:cjc046_4224"
    INDEX 01 00:32:47
  TRACK 43 AUDIO
    TITLE "0:"
    INDEX 01 00:34:04
  TRACK 44 AUDIO
    TITLE "2:cjc046_4225"
    INDEX 01 00:35:15
  TRACK 45 AUDIO
    TITLE "0:"
    INDEX 01 00:36:19
  TRACK 46 AUDIO
    TITLE "3:cjc046_4226"
    INDEX 01 00:36:35
  TRACK 47 AUDIO
    TITLE "0:"
    INDEX 01 00:37:44
  TRACK 48 AUDIO
    TITLE "4:cjc046_4227"
    INDEX 01 00:37:65
  TRACK 49 AUDIO
    TITLE "0:"
    INDEX 01 00:38:67
  TRACK 50 AUDIO
    TITLE "2:cjc046_4228"
    INDEX 01 00:40:01
  TRACK 51 AUDIO
    TITLE "0:"
    INDEX 01 00:41:10
  TRACK 52 AUDIO
    TITLE "3:cjc046_4229"
    INDEX 01 00:41:24
  TRACK 53 AUDIO
    TITLE "0:"
    INDEX 01 00:42:33
  TRACK 54 AUDIO
    TITLE "4:cjc046_4230"
    INDEX 01 00:42:53
  TRACK 55 AUDIO
    TITLE "0:"
    INDEX 01 00:43:60
  TRACK 56 AUDIO
    TITLE "2:cjc046_4231"
    INDEX 01 00:44:67
  TRACK 57 AUDIO
    TITLE "0:"
    INDEX 01 00:46:06
  TRACK 58 AUDIO
    TITLE "3:cjc046_4232"
    INDEX 01 00:46:25
  TRACK 59 AUDIO
    TITLE "0:"
    INDEX 01 00:48:32
  TRACK 60 AUDIO
    TITLE "4:cjc046_4233"
    INDEX 01 00:48:49
  TRACK 61 AUDIO
    TITLE "0:"
    INDEX 01 00:49:61
  TRACK 62 AUDIO
    TITLE "2:cjc046_4234"
    INDEX 01 00:50:70
  TRACK 63 AUDIO
    TITLE "0:"
    INDEX 01 00:52:06
  TRACK 64 AUDIO
    TITLE "3:cjc046_4235"
    INDEX 01 00:52:20
  TRACK 65 AUDIO
    TITLE "0:"
    INDEX 01 00:53:23
  TRACK 66 AUDIO
    TITLE "4:cjc046_4236"
    INDEX 01 00:53:43
  TRACK 67 AUDIO
    TITLE "0:"
    INDEX 01 00:54:54
  TRACK 68 AUDIO
    TITLE "2:cjc046_4237"
    INDEX 01 00:55:63
  TRACK 69 AUDIO
    TITLE "0:"
    INDEX 01 00:56:71
  TRACK 70 AUDIO
    TITLE "3:cjc046_4238"
    INDEX 01 00:57:07
  TRACK 71 AUDIO
    TITLE "0:"
    INDEX 01 00:58:40
  TRACK 72 AUDIO
    TITLE "4:cjc046_4239"
    INDEX 01 00:58:58
  TRACK 73 AUDIO
    TITLE "0:"
    INDEX 01 00:59:65
  TRACK 74 AUDIO
    TITLE "2:cjc046_4240"
    INDEX 01 01:00:70
  TRACK 75 AUDIO
    TITLE "0:"
    INDEX 01 01:02:01
  TRACK 76 AUDIO
    TITLE "3:cjc046_4241"
    INDEX 01 01:02:18
  TRACK 77 AUDIO
    TITLE "0:"
    INDEX 01 01:03:37
  TRACK 78 AUDIO
    TITLE "4:cjc046_4242"
    INDEX 01 01:03:53
  TRACK 79 AUDIO
    TITLE "0:"
    INDEX 01 01:04:60
  TRACK 80 AUDIO
    TITLE "2:cjc046_4243"
    INDEX 01 01:05:69
  TRACK 81 AUDIO
    TITLE "0:"
    INDEX 01 01:06:71
  TRACK 82 AUDIO
    TITLE "3:cjc046_4244"
    INDEX 01 01:07:15
  TRACK 83 AUDIO
    TITLE "0:"
    INDEX 01 01:08:36
  TRACK 84 AUDIO
    TITLE "4:cjc046_4245"
    INDEX 01 01:08:56
  TRACK 85 AUDIO
    TITLE "0:"
    INDEX 01 01:09:59
  TRACK 86 AUDIO
    TITLE "2:cjc046_4246"
    INDEX 01 01:10:63
  TRACK 87 AUDIO
    TITLE "0:"
    INDEX 01 01:12:03
  TRACK 88 AUDIO
    TITLE "3:cjc046_4247"
    INDEX 01 01:12:19
  TRACK 89 AUDIO
    TITLE "0:"
    INDEX 01 01:13:36
  TRACK 90 AUDIO
    TITLE "4:cjc046_4248"
    INDEX 01 01:13:53
  TRACK 91 AUDIO
    TITLE "0:"
    INDEX 01 01:14:68
  TRACK 92 AUDIO
    TITLE "2:cjc046_4249"
    INDEX 01 01:16:05
  TRACK 93 AUDIO
    TITLE "0:"
    INDEX 01 01:17:22
  TRACK 94 AUDIO
    TITLE "3:cjc046_4250"
    INDEX 01 01:17:43
  TRACK 95 AUDIO
    TITLE "0:"
    INDEX 01 01:18:66
  TRACK 96 AUDIO
    TITLE "4:cjc046_4251"
    INDEX 01 01:19:09
  TRACK 97 AUDIO
    TITLE "0:"
    INDEX 01 01:20:28
